<svg id="Analytics" xmlns="http://www.w3.org/2000/svg" width="21.242" height="21.212" viewBox="0 0 21.242 21.212">
  <g id="Group_346" data-name="Group 346" transform="translate(798.917 141)" opacity="0.7">
    <path id="Path_25122" data-name="Path 25122" d="M113.586,52.85A8.529,8.529,0,0,0,118.5,51.3l1.315,1.315h0a1.517,1.517,0,0,0,.29,1.725l2.109,2.109h0a1.517,1.517,0,0,0,2.146,0l1.43-1.43a1.517,1.517,0,0,0,0-2.146l-2.111-2.111a1.514,1.514,0,0,0-1.725-.29l-1.315-1.315h0a8.586,8.586,0,1,0-7.049,3.689Zm9.016-1.517h0a.506.506,0,0,1,.357.148l2.109,2.109h0a.506.506,0,0,1,0,.716l-1.43,1.43a.506.506,0,0,1-.716,0l-2.109-2.109h0a.506.506,0,0,1,0-.716l1.426-1.426a.505.505,0,0,1,.362-.152Zm-1.431-.207-.713.713-1.167-1.167c.125-.111.253-.218.373-.338s.227-.248.338-.373ZM108.225,38.887h0a7.531,7.531,0,1,1-1.652,2.461,7.586,7.586,0,0,1,1.652-2.461Z" transform="translate(-903.906 -176.685)" fill="#fff"/>
    <path id="Path_25123" data-name="Path 25123" d="M165.863,236.872a1.012,1.012,0,0,0,1.011-1.011v-1.517a1.012,1.012,0,0,0-1.011-1.012h-1.517a1.012,1.012,0,0,0-1.012,1.012v1.517a1.012,1.012,0,0,0,1.012,1.011Zm-1.517-2.528h1.517v1.517h-1.517Z" transform="translate(-959.723 -365.765)" fill="#fff"/>
    <path id="Path_25124" data-name="Path 25124" d="M265.027,198.33h-1.517a1.012,1.012,0,0,0-1.011,1.012v3.034a1.012,1.012,0,0,0,1.011,1.011h1.517a1.012,1.012,0,0,0,1.012-1.011v-3.034a1.012,1.012,0,0,0-1.012-1.012Zm-1.517,4.046v-3.034h1.517v3.034Z" transform="translate(-1054.588 -332.28)" fill="#fff"/>
    <path id="Path_25125" data-name="Path 25125" d="M362.679,158.746H364.2a1.011,1.011,0,0,0,1.011-1.011v-5.057a1.011,1.011,0,0,0-1.011-1.011h-1.517a1.011,1.011,0,0,0-1.011,1.011v5.057a1.011,1.011,0,0,0,1.011,1.011Zm0-6.069H364.2v5.057h-1.517Z" transform="translate(-1149.459 -287.639)" fill="#fff"/>
    <path id="Path_25126" data-name="Path 25126" d="M222.172,108.542a.507.507,0,0,0,.358-.148l1.224-1.224,1.172.781a.506.506,0,0,0,.685-.117l1.517-2.023h0a.506.506,0,1,0-.809-.607l-1.23,1.64-1.119-.746h0a.506.506,0,0,0-.638.063l-1.517,1.517a.506.506,0,0,0,.357.863Z" transform="translate(-1015.527 -242.997)" fill="#fff"/>
  </g>
</svg>
