<svg xmlns="http://www.w3.org/2000/svg" width="22.318" height="22.318" viewBox="0 0 22.318 22.318">
  <g id="Exchange" transform="translate(0.25 0.25)">
    <path id="Path_25128" data-name="Path 25128" d="M216.709,157.618a10.909,10.909,0,1,1,10.909-10.909A10.921,10.921,0,0,1,216.709,157.618Zm0-20.97a10.061,10.061,0,1,0,10.061,10.062A10.073,10.073,0,0,0,216.709,136.647Z" transform="translate(-205.8 -135.8)" fill="#fff" stroke="#fff" stroke-width="0.5"/>
    <path id="Path_25129" data-name="Path 25129" d="M318.631,309.134h-7.789a.424.424,0,1,1,0-.848h7.789a.424.424,0,1,1,0,.848Z" transform="translate(-302.504 -295.238)" fill="#fff" stroke="#fff" stroke-width="0.5"/>
    <path id="Path_25130" data-name="Path 25130" d="M378.806,284.182a.424.424,0,0,1-.275-.747l2.5-2.117-2.2-1.918a.424.424,0,0,1,.557-.639L381.958,281a.424.424,0,0,1,0,.643l-2.874,2.436A.423.423,0,0,1,378.806,284.182Z" transform="translate(-365.326 -267.85)" fill="#fff" stroke="#fff" stroke-width="0.5"/>
    <path id="Path_25131" data-name="Path 25131" d="M283.641,236.784h-7.789a.424.424,0,1,1,0-.847h7.789a.424.424,0,1,1,0,.847Z" transform="translate(-270.161 -228.362)" fill="#fff" stroke="#fff" stroke-width="0.5"/>
    <path id="Path_25132" data-name="Path 25132" d="M275.725,211.826a.422.422,0,0,1-.274-.1l-2.873-2.436a.423.423,0,0,1,0-.643l2.571-2.242a.424.424,0,1,1,.557.639l-2.2,1.918,2.5,2.117a.424.424,0,0,1-.275.747Z" transform="translate(-267.388 -200.967)" fill="#fff" stroke="#fff" stroke-width="0.5"/>
  </g>
</svg>
