<svg id="Farming" xmlns="http://www.w3.org/2000/svg" width="13.533" height="21.936" viewBox="0 0 13.533 21.936">
  <path id="Path_25180" data-name="Path 25180" d="M200.565,15.747a3.213,3.213,0,0,0-1.086-2.415,3.228,3.228,0,0,0-3.027-4.351h-.045a3.227,3.227,0,0,0-5.217,0h-.045a3.228,3.228,0,0,0-3.027,4.351,3.228,3.228,0,0,0,.477,5.181,3.232,3.232,0,0,0,.648,3.435v1.76a1.461,1.461,0,0,0,.929,1.359l.4,4.005a.575.575,0,0,0,.572.518h5.307a.575.575,0,0,0,.572-.518l.4-4.005a1.461,1.461,0,0,0,.929-1.359v-1.76A3.232,3.232,0,0,0,199,18.513a3.234,3.234,0,0,0,1.563-2.766ZM197.2,22.514v1.194a.31.31,0,0,1-.31.31H190.7a.31.31,0,0,1-.31-.31V22.514Zm-1.272,5.926h-4.267l-.327-3.273h4.921Zm2.093-10.731a.575.575,0,0,0-.287.863,2.078,2.078,0,0,1-.447,2.792h-2.917v-.29a4.513,4.513,0,0,0,3.064-2.925.575.575,0,1,0-1.085-.38,3.381,3.381,0,0,1-1.978,2.094V18.407h0V16.651a4.513,4.513,0,0,0,3.064-2.925.575.575,0,1,0-1.085-.38,3.381,3.381,0,0,1-1.978,2.094V13.984h0V11.767a.575.575,0,0,0-1.15,0v1.46a3.388,3.388,0,0,1-1.978-2.093.575.575,0,1,0-1.085.38,4.512,4.512,0,0,0,3.064,2.925v1.755h0V17.65a3.388,3.388,0,0,1-1.978-2.093.575.575,0,1,0-1.085.38,4.512,4.512,0,0,0,3.064,2.925v1.755h0v.746h-2.917a2.078,2.078,0,0,1-.447-2.792.575.575,0,0,0-.287-.863,2.078,2.078,0,0,1-.43-3.714.575.575,0,0,0,.191-.767,2.076,2.076,0,0,1,2.081-3.08.575.575,0,0,0,.574-.287,2.078,2.078,0,0,1,3.621,0,.575.575,0,0,0,.574.287,2.111,2.111,0,0,1,.269-.018,2.078,2.078,0,0,1,1.811,3.1.575.575,0,0,0,.191.767,2.078,2.078,0,0,1-.43,3.714Z" transform="translate(-187.032 -7.654)" fill="#fff" opacity="0.7"/>
</svg>
