<svg xmlns="http://www.w3.org/2000/svg" width="19.537" height="22" viewBox="0 0 19.537 22">
  <g id="Launchpad" transform="translate(0)">
    <g id="Group_341" data-name="Group 341" transform="translate(578.307 222)" opacity="0.7">
      <path id="Path_25139" data-name="Path 25139" d="M148.35,36.71h-.311v-.718a1.231,1.231,0,0,0-1.23-1.229v-2a.389.389,0,1,0-.777,0v2a1.231,1.231,0,0,0-1.23,1.229v.718H131.417a1.3,1.3,0,0,0-1.3,1.3V53.076a1.3,1.3,0,0,0,1.3,1.3H148.35a1.3,1.3,0,0,0,1.3-1.3V38.013a1.3,1.3,0,0,0-1.3-1.3Zm-2.772-.718a.453.453,0,0,1,.452-.452h.778a.453.453,0,0,1,.452.452v.718h-1.683Zm3.3,17.084a.526.526,0,0,1-.525.525H131.417a.526.526,0,0,1-.525-.525V38.014a.526.526,0,0,1,.525-.525s16.482,0,16.932,0a.526.526,0,0,1,.525.525Z" transform="translate(-708.422 -254.379)" fill="#fff"/>
      <path id="Path_25140" data-name="Path 25140" d="M172.2,428.82h-2.143a.389.389,0,0,0-.389.389v1.837a.389.389,0,0,0,.389.389H172.2a.389.389,0,0,0,.389-.389v-1.837a.389.389,0,0,0-.389-.389Zm-.389,1.837h-1.366V429.6h1.366Z" transform="translate(-746.214 -633.208)" fill="#fff"/>
      <path id="Path_25141" data-name="Path 25141" d="M276.22,428.82h-2.143a.389.389,0,0,0-.389.389v1.837a.389.389,0,0,0,.389.389h2.143a.389.389,0,0,0,.389-.389v-1.837a.389.389,0,0,0-.389-.389Zm-.389,1.837h-1.366V429.6h1.366Z" transform="translate(-845.616 -633.208)" fill="#fff"/>
      <path id="Path_25142" data-name="Path 25142" d="M375.214,428.82h-2.143a.389.389,0,0,0-.389.389v1.837a.389.389,0,0,0,.389.389h2.143a.389.389,0,0,0,.389-.389v-1.837a.389.389,0,0,0-.389-.389Zm-.389,1.837h-1.366V429.6h1.366Z" transform="translate(-940.212 -633.208)" fill="#fff"/>
      <path id="Path_25143" data-name="Path 25143" d="M172.2,344.68h-2.143a.389.389,0,0,0-.389.389v1.837a.389.389,0,0,0,.389.389H172.2a.389.389,0,0,0,.389-.389v-1.837a.389.389,0,0,0-.389-.389Zm-.389,1.837h-1.366v-1.06h1.366Z" transform="translate(-746.214 -552.806)" fill="#fff"/>
      <path id="Path_25144" data-name="Path 25144" d="M271.559,346.926H273.7a.389.389,0,0,0,.389-.389V344.7a.389.389,0,0,0-.389-.389h-2.143a.389.389,0,0,0-.389.389v1.837A.389.389,0,0,0,271.559,346.926Zm.389-1.837h1.366v1.06h-1.366Z" transform="translate(-843.21 -552.454)" fill="#fff"/>
      <path id="Path_25145" data-name="Path 25145" d="M375.214,344.78h-2.143a.389.389,0,0,0-.389.389v1.837a.389.389,0,0,0,.389.389h2.143a.389.389,0,0,0,.389-.389v-1.837a.389.389,0,0,0-.389-.389Zm-.389,1.837h-1.366v-1.06h1.366Z" transform="translate(-940.212 -552.901)" fill="#fff"/>
      <path id="Path_25146" data-name="Path 25146" d="M172.2,255.41h-2.143a.389.389,0,0,0-.389.389v1.837a.389.389,0,0,0,.389.389H172.2a.389.389,0,0,0,.389-.389V255.8a.389.389,0,0,0-.389-.389Zm-.389,1.837h-1.366v-1.06h1.366Z" transform="translate(-746.214 -467.502)" fill="#fff"/>
      <path id="Path_25147" data-name="Path 25147" d="M271.559,258.026H273.7a.389.389,0,0,0,.389-.389V255.8a.389.389,0,0,0-.389-.389h-2.143a.389.389,0,0,0-.389.389v1.837a.389.389,0,0,0,.389.389Zm.389-1.837h1.366v1.06h-1.366Z" transform="translate(-843.21 -467.503)" fill="#fff"/>
      <path id="Path_25148" data-name="Path 25148" d="M375.214,255.41h-2.143a.389.389,0,0,0-.389.389v1.837a.389.389,0,0,0,.389.389h2.143a.389.389,0,0,0,.389-.389V255.8a.389.389,0,0,0-.389-.389Zm-.389,1.837h-1.366v-1.06h1.366Z" transform="translate(-940.212 -467.502)" fill="#fff"/>
      <path id="Path_25149" data-name="Path 25149" d="M474.814,428.68a1.314,1.314,0,1,0,1.314,1.313h0a1.315,1.315,0,0,0-1.314-1.313Zm0,1.85a.536.536,0,1,1,.522-.536.536.536,0,0,1-.522.536Z" transform="translate(-1036.552 -633.074)" fill="#fff"/>
      <path id="Path_25150" data-name="Path 25150" d="M474.814,344.16a1.314,1.314,0,1,0,1.314,1.314h0a1.315,1.315,0,0,0-1.314-1.314Zm0,1.85a.536.536,0,1,1,.526-.536A.536.536,0,0,1,474.814,346.01Z" transform="translate(-1036.552 -552.309)" fill="#fff"/>
      <path id="Path_25151" data-name="Path 25151" d="M474.814,252.48a1.314,1.314,0,1,0,1.314,1.314h0a1.315,1.315,0,0,0-1.314-1.314Zm0,1.85a.536.536,0,1,1,.526-.536A.536.536,0,0,1,474.814,254.33Z" transform="translate(-1036.552 -464.702)" fill="#fff"/>
      <path id="Path_25152" data-name="Path 25152" d="M174.279,174.583a1.315,1.315,0,1,0-.929-.385,1.315,1.315,0,0,0,.929.385Zm0-1.85a.536.536,0,1,1-.526.536A.537.537,0,0,1,174.279,172.733Z" transform="translate(-749.368 -387.764)" fill="#fff"/>
      <path id="Path_25153" data-name="Path 25153" d="M275.8,173.576a1.315,1.315,0,1,0-.928-.385,1.315,1.315,0,0,0,.928.385Zm0-1.85a.536.536,0,1,1-.526.536A.536.536,0,0,1,275.8,171.725Z" transform="translate(-846.382 -386.801)" fill="#fff"/>
      <path id="Path_25154" data-name="Path 25154" d="M377.3,174.583a1.315,1.315,0,1,0-.929-.385,1.316,1.316,0,0,0,.929.385Zm0-1.85a.536.536,0,1,1-.526.536A.536.536,0,0,1,377.3,172.733Z" transform="translate(-943.369 -387.764)" fill="#fff"/>
      <path id="Path_25155" data-name="Path 25155" d="M474.814,170.35a1.314,1.314,0,1,0,1.314,1.315h0a1.316,1.316,0,0,0-1.314-1.315Zm0,1.85h0a.536.536,0,1,1,.526-.536.536.536,0,0,1-.526.536Z" transform="translate(-1036.552 -386.22)" fill="#fff"/>
    </g>
  </g>
</svg>
