<svg xmlns="http://www.w3.org/2000/svg" width="21.81" height="22.325" viewBox="0 0 21.81 22.325">
  <g id="Liquidity" transform="translate(0.201 0.228)">
    <path id="Path_25179" data-name="Path 25179" d="M159.358,79.811a9.784,9.784,0,0,0-6.675-12.118,2.759,2.759,0,0,0-5.515,0,9.8,9.8,0,0,0-6.65,12.116,2.759,2.759,0,1,0,2.949,4.664,9.784,9.784,0,0,0,12.944,0,2.757,2.757,0,0,0,2.947-4.662Zm-9.42-13.99a1.908,1.908,0,1,1-1.345.56,1.906,1.906,0,0,1,1.345-.56Zm-9.892,16.345a1.906,1.906,0,1,1,.558,1.347A1.9,1.9,0,0,1,140.046,82.166ZM144.1,83.9a2.756,2.756,0,0,0-2.147-4.482,2.791,2.791,0,0,0-.64.077,8.948,8.948,0,0,1,5.981-10.953,2.759,2.759,0,0,0,5.267,0,8.933,8.933,0,0,1,6,10.939,2.756,2.756,0,0,0-2.787,4.42,8.945,8.945,0,0,1-11.678,0Zm13.825.182h0a.787.787,0,1,0,0-.014Z" transform="translate(-139.234 -65.023)" fill="#fff" stroke="#fff" stroke-width="0.4" opacity="0.7"/>
  </g>
</svg>
