<svg id="Group_2" data-name="Group 2" xmlns="http://www.w3.org/2000/svg" xmlns:xlink="http://www.w3.org/1999/xlink" width="27.819" height="32" viewBox="0 0 27.819 32">
  <defs>
    <linearGradient id="linear-gradient" x1="-0.053" y1="0.5" x2="1.469" y2="0.5" gradientUnits="objectBoundingBox">
      <stop offset="0" stop-color="#3d5eff"/>
      <stop offset="0.7" stop-color="#a4b1ff"/>
      <stop offset="1" stop-color="#bac7ff"/>
    </linearGradient>
    <linearGradient id="linear-gradient-2" x1="0.5" y1="0.374" x2="0.5" y2="0.789" xlink:href="#linear-gradient"/>
    <linearGradient id="linear-gradient-3" x1="0.895" y1="0.5" x2="0.031" y2="0.5" gradientUnits="objectBoundingBox">
      <stop offset="0" stop-color="#3d5eff"/>
      <stop offset="1" stop-color="#a4b1ff"/>
    </linearGradient>
    <linearGradient id="linear-gradient-4" x1="0.5" y1="1.006" x2="0.5" y2="0.032" xlink:href="#linear-gradient"/>
  </defs>
  <path id="Path_1" data-name="Path 1" d="M55.283,77.83l-5.219,3-.014-.008V86.85l5.233-3.01,3.443-1.98V75.85Z" transform="translate(-36.141 -54.85)" fill="url(#linear-gradient)"/>
  <path id="Path_2" data-name="Path 2" d="M58.726,4.992h0L55.283,3.01,50.05,0V25.973l.014.008,5.219-3V9.02L58.726,11h0V27.011L63.959,24V8Z" transform="translate(-36.141)" fill="url(#linear-gradient-2)"/>
  <path id="Path_3" data-name="Path 3" d="M5.233,18.863h0l3.443-1.982V10.87L5.233,12.852h0L0,15.862v16l5.233,3.01h0l3.443,1.98V30.84l-3.443-1.98h0Z" transform="translate(0 -7.86)" fill="url(#linear-gradient-3)"/>
  <path id="Path_4" data-name="Path 4" d="M31.22,3.01V28.99L36.453,32V0Z" transform="translate(-22.544)" fill="url(#linear-gradient-4)"/>
</svg>
