<svg id="Lottery" xmlns="http://www.w3.org/2000/svg" width="18.118" height="22" viewBox="0 0 18.118 22">
  <path id="Path_25181" data-name="Path 25181" d="M132.589,17.743l1.169,2.962h2.472a.647.647,0,0,1,0,1.294h-2.912a.647.647,0,0,1-.6-.409l-1.393-3.527-5.737.05-1.373,3.477a.647.647,0,0,1-.6.409H120.7a.647.647,0,0,1,0-1.294h2.472l1.192-3.019-4.7-4.622a.648.648,0,0,1-.193-.456l-.06-6.943a.647.647,0,0,1,.185-.459L124.459.253a.647.647,0,0,1,.456-.194L131.858,0a.647.647,0,0,1,.459.186l4.953,4.867a.647.647,0,0,1,.194.456l.06,6.943a.647.647,0,0,1-.185.459ZM125.966,4.9l-1.3-3.01-3.475,3.536,3.054,1.233A4.877,4.877,0,0,1,125.966,4.9Zm1.188-.513a4.888,4.888,0,0,1,2.623,0l1.33-3.084-5.264.046Zm3.811.513a4.877,4.877,0,0,1,1.719,1.759l3.1-1.252-3.538-3.476Zm2.2,2.959a4.889,4.889,0,0,1,0,2.4l3.053,1.233-.042-4.852Zm-.485,3.6a4.878,4.878,0,0,1-1.85,1.836l1.236,3.131,3.668-3.733ZM126.1,13.295a4.877,4.877,0,0,1-1.85-1.836l-3.1,1.252,3.732,3.668Zm-2.335-3.035a4.89,4.89,0,0,1,0-2.4l-3.053-1.233.042,4.852ZM127.3,13.77l-1.2,3.043,4.715-.041-1.185-3a4.894,4.894,0,0,1-2.329,0Zm1.164-1.154a3.559,3.559,0,1,0-3.559-3.559A3.559,3.559,0,0,0,128.466,12.617Z" transform="translate(-119.406 0.001)" fill="#fff" opacity="0.7"/>
</svg>
