<svg id="Lowfee" xmlns="http://www.w3.org/2000/svg" width="61.687" height="57.963" viewBox="0 0 61.687 57.963">
  <path id="Path_25184" data-name="Path 25184" d="M274.456,192a1.909,1.909,0,0,1,3.818,0,1.991,1.991,0,1,0,2.023-1.988,5.808,5.808,0,0,1-2-11.275V176.4a1.909,1.909,0,0,1,3.818,0v2.289a5.836,5.836,0,0,1,3.954,5.512,1.909,1.909,0,0,1-3.818,0,1.991,1.991,0,1,0-2.024,1.988,5.812,5.812,0,0,1,1.888,11.318v2.16a1.909,1.909,0,0,1-3.818,0v-2.2A5.817,5.817,0,0,1,274.456,192Z" transform="translate(-248.253 -166.113)" fill="#fff"/>
  <path id="Path_25185" data-name="Path 25185" d="M419.293,142.74v22.428a.424.424,0,0,0,.423.424h5.648l-9.258,12.065-9.258-12.065H412.5a.418.418,0,0,0,.416-.424V142.74Z" transform="translate(-363.678 -138.405)" fill="#fff"/>
  <path id="Path_25186" data-name="Path 25186" d="M170.6,149.482a18.6,18.6,0,0,0,14.777-7.285l2.067,2.691a21.93,21.93,0,1,1-.459-28.615v5.684A18.636,18.636,0,1,0,170.6,149.482Z" transform="translate(-138.595 -108.918)" fill="#fff"/>
  <g id="Group_377" data-name="Group 377" transform="translate(0.002 57.893)">
    <path id="Path_25187" data-name="Path 25187" d="M.038-.179l0,0h0a.02.02,0,0,1-.01,0,.012.012,0,0,1,0-.01c0-.005,0-.009,0-.01a.014.014,0,0,1,.01,0h0l0,0v0h0l0,0a.008.008,0,0,0-.006,0,.011.011,0,0,0,0,.008s0,.005,0,.006,0,0,.006,0h0l0,0Z" transform="translate(-0.016 0.203)" fill="#fff"/>
  </g>
  <g id="Group_378" data-name="Group 378" transform="translate(0.029 57.899)">
    <path id="Path_25188" data-name="Path 25188" d="M.032-.15h0a0,0,0,0,0,0,0l0,0v.014H.016v-.02H.024v0a0,0,0,0,1,0,0l0,0h0Z" transform="translate(-0.016 0.156)" fill="#fff"/>
  </g>
  <g id="Group_379" data-name="Group 379" transform="translate(0.046 57.899)">
    <path id="Path_25189" data-name="Path 25189" d="M.036-.146v0H.022v0h.01l0,0v0l0,0H.026l-.008,0a.015.015,0,0,1,0-.008.008.008,0,0,1,0-.006.011.011,0,0,1,.008,0,.007.007,0,0,1,.006,0,.007.007,0,0,1,0,.006Zm-.006,0a0,0,0,0,0,0,0,0,0,0,0,0,0,0l0,0v0Z" transform="translate(-0.016 0.156)" fill="#fff"/>
  </g>
  <g id="Group_380" data-name="Group 380" transform="translate(0.071 57.899)">
    <path id="Path_25190" data-name="Path 25190" d="M.026-.144h0v0H.028a.006.006,0,0,0,0,0Zm.01,0v.012H.03v0l0,0H.018s0,0,0-.006,0,0,0,0a.013.013,0,0,1,.008,0h0a0,0,0,0,0,0,0l0,0h0a0,0,0,0,0,0,0V-.156H.026l.006,0A.007.007,0,0,1,.036-.148Z" transform="translate(-0.016 0.156)" fill="#fff"/>
  </g>
  <g id="Group_381" data-name="Group 381" transform="translate(0.093 57.893)">
    <path id="Path_25191" data-name="Path 25191" d="M.01-.2V-.2H.016v0H.01v.012H.016v0H.01s-.005,0-.006,0V-.193H0v0H0V-.2Z" transform="translate(0 0.203)" fill="#fff"/>
  </g>
  <g id="Group_382" data-name="Group 382" transform="translate(0.112 57.899)">
    <path id="Path_25192" data-name="Path 25192" d="M.036-.146v0H.022v0h.01l0,0v0l0,0H.026l-.008,0a.015.015,0,0,1,0-.008.008.008,0,0,1,0-.006.011.011,0,0,1,.008,0,.007.007,0,0,1,.006,0,.007.007,0,0,1,0,.006Zm-.006,0a0,0,0,0,0,0,0,0,0,0,0,0,0,0l0,0v0Z" transform="translate(-0.016 0.156)" fill="#fff"/>
  </g>
  <g id="Group_383" data-name="Group 383" transform="translate(0.136 57.891)">
    <path id="Path_25193" data-name="Path 25193" d="M.03-.207V-.219H.036v.028H.03v0l0,0h0s-.005,0-.006,0a.015.015,0,0,1,0-.008.008.008,0,0,1,0-.006.006.006,0,0,1,.006,0l0,0A0,0,0,0,1,.03-.207Zm0,.012h0A.008.008,0,0,0,.03-.2a.01.01,0,0,0,0,0,0,0,0,0,0,0,0l0,0v.01Z" transform="translate(-0.016 0.219)" fill="#fff"/>
  </g>
  <g id="Group_384" data-name="Group 384" transform="translate(0.174 57.891)">
    <path id="Path_25194" data-name="Path 25194" d="M.028-.195h0a.008.008,0,0,0,0-.006.01.01,0,0,0,0,0,0,0,0,0,0,0,0l0,0V-.2a0,0,0,0,0,0,0Zm0-.012a0,0,0,0,1,0,0l0,0a.007.007,0,0,1,.006,0,.011.011,0,0,1,0,.006.021.021,0,0,1,0,.008.008.008,0,0,1-.006,0h0l0,0v0H.016V-.219H.024Z" transform="translate(-0.016 0.219)" fill="#fff"/>
  </g>
  <g id="Group_385" data-name="Group 385" transform="translate(0.198 57.899)">
    <path id="Path_25195" data-name="Path 25195" d="M0-.156H.006l.006.014,0-.014H.022L.014-.134s0,0,0,0l0,0H0v0h0a0,0,0,0,0,0,0v0Z" transform="translate(0 0.156)" fill="#fff"/>
  </g>
  <g id="Group_386" data-name="Group 386" transform="translate(0.238 57.893)">
    <path id="Path_25196" data-name="Path 25196" d="M.039-.191h0V-.2s0,0,0,0h0v.008Zm0,0v.01H.031V-.2h.01l.006,0s0,0,0,0a.008.008,0,0,1,0,.006s0,0,0,0a0,0,0,0,1,0,0,0,0,0,0,1,0,0l0,.008H.047l0-.006a0,0,0,0,0,0,0,0,0,0,0,0,0,0Z" transform="translate(-0.031 0.203)" fill="#fff"/>
  </g>
  <g id="Group_387" data-name="Group 387" transform="translate(0.263 57.899)">
    <path id="Path_25197" data-name="Path 25197" d="M.026-.144h0v0H.028a.006.006,0,0,0,0,0Zm.01,0v.012H.03v0l0,0H.018s0,0,0-.006,0,0,0,0a.013.013,0,0,1,.008,0h0a0,0,0,0,0,0,0l0,0h0a0,0,0,0,0,0,0V-.156H.026l.006,0A.007.007,0,0,1,.036-.148Z" transform="translate(-0.016 0.156)" fill="#fff"/>
  </g>
  <g id="Group_388" data-name="Group 388" transform="translate(0.288 57.899)">
    <path id="Path_25198" data-name="Path 25198" d="M.03-.14a.006.006,0,0,1,0,0h0s-.005,0-.006,0a.015.015,0,0,1,0-.008.008.008,0,0,1,0-.006.006.006,0,0,1,.006,0l0,0a0,0,0,0,1,0,0v0H.036v.018a.007.007,0,0,1,0,.006.007.007,0,0,1-.006,0H.02l0,0v0h0l0,0s0,0,0,0,0,0,0,0Zm0-.012,0,0v.008a0,0,0,0,0,0,0,0,0,0,0,0,0,0,.006.006,0,0,0,0,0,.01.01,0,0,0,0,0A0,0,0,0,0,.026-.152Z" transform="translate(-0.016 0.156)" fill="#fff"/>
  </g>
  <g id="Group_389" data-name="Group 389" transform="translate(0.313 57.899)">
    <path id="Path_25199" data-name="Path 25199" d="M.026-.144h0v0H.028a.006.006,0,0,0,0,0Zm.01,0v.012H.03v0l0,0H.018s0,0,0-.006,0,0,0,0a.013.013,0,0,1,.008,0h0a0,0,0,0,0,0,0l0,0h0a0,0,0,0,0,0,0V-.156H.026l.006,0A.007.007,0,0,1,.036-.148Z" transform="translate(-0.016 0.156)" fill="#fff"/>
  </g>
  <g id="Group_390" data-name="Group 390" transform="translate(0.337 57.891)">
    <path id="Path_25200" data-name="Path 25200" d="M.016-.219H.024v.028H.016Z" transform="translate(-0.016 0.219)" fill="#fff"/>
  </g>
  <g id="Group_391" data-name="Group 391" transform="translate(0.365 57.893)">
    <path id="Path_25201" data-name="Path 25201" d="M.031-.2H.037v.01L.047-.2H.055L.043-.191l.014.014H.047l-.01-.01v.01H.031Z" transform="translate(-0.031 0.203)" fill="#fff"/>
  </g>
  <g id="Group_392" data-name="Group 392" transform="translate(0.39 57.899)">
    <path id="Path_25202" data-name="Path 25202" d="M.026-.144h0v0H.028a.006.006,0,0,0,0,0Zm.01,0v.012H.03v0l0,0H.018s0,0,0-.006,0,0,0,0a.013.013,0,0,1,.008,0h0a0,0,0,0,0,0,0l0,0h0a0,0,0,0,0,0,0V-.156H.026l.006,0A.007.007,0,0,1,.036-.148Z" transform="translate(-0.016 0.156)" fill="#fff"/>
  </g>
  <g id="Group_393" data-name="Group 393" transform="translate(0.415 57.899)">
    <path id="Path_25203" data-name="Path 25203" d="M.032-.15h0a0,0,0,0,0,0,0l0,0v.014H.016v-.02H.024v0a0,0,0,0,1,0,0l0,0h0Z" transform="translate(-0.016 0.156)" fill="#fff"/>
  </g>
  <g id="Group_394" data-name="Group 394" transform="translate(0.43 57.893)">
    <path id="Path_25204" data-name="Path 25204" d="M.01-.2V-.2H.016v0H.01v.012H.016v0H.01s-.005,0-.006,0V-.193H0v0H0V-.2Z" transform="translate(0 0.203)" fill="#fff"/>
  </g>
  <g id="Group_395" data-name="Group 395" transform="translate(0.449 57.891)">
    <path id="Path_25205" data-name="Path 25205" d="M.016-.211H.024v.02H.016Zm0-.008H.024v.006H.016Z" transform="translate(-0.016 0.219)" fill="#fff"/>
  </g>
  <g id="Group_396" data-name="Group 396" transform="translate(0.462 57.891)">
    <path id="Path_25206" data-name="Path 25206" d="M.03-.207V-.219H.036v.028H.03v0l0,0h0s-.005,0-.006,0a.015.015,0,0,1,0-.008.008.008,0,0,1,0-.006.006.006,0,0,1,.006,0l0,0A0,0,0,0,1,.03-.207Zm0,.012h0A.008.008,0,0,0,.03-.2a.01.01,0,0,0,0,0,0,0,0,0,0,0,0l0,0v.01Z" transform="translate(-0.016 0.219)" fill="#fff"/>
  </g>
  <g id="Group_397" data-name="Group 397" transform="translate(0.487 57.899)">
    <path id="Path_25207" data-name="Path 25207" d="M.036-.146v0H.022v0h.01l0,0v0l0,0H.026l-.008,0a.015.015,0,0,1,0-.008.008.008,0,0,1,0-.006.011.011,0,0,1,.008,0,.007.007,0,0,1,.006,0,.007.007,0,0,1,0,.006Zm-.006,0a0,0,0,0,0,0,0,0,0,0,0,0,0,0l0,0v0Z" transform="translate(-0.016 0.156)" fill="#fff"/>
  </g>
  <g id="Group_398" data-name="Group 398" transform="translate(0.51 57.899)">
    <path id="Path_25208" data-name="Path 25208" d="M0-.156H.006l.006.014,0-.014H.022l-.006.02H.008Z" transform="translate(0 0.156)" fill="#fff"/>
  </g>
  <g id="Group_399" data-name="Group 399" transform="translate(0 57.927)">
    <path id="Path_25209" data-name="Path 25209" d="M.016-.219v.006H.01v0H.016v0H.01v.016H0V-.207H0v0H0a.008.008,0,0,1,0-.006.008.008,0,0,1,.006,0Z" transform="translate(0 0.219)" fill="#fff"/>
  </g>
  <g id="Group_400" data-name="Group 400" transform="translate(0.018 57.935)">
    <path id="Path_25210" data-name="Path 25210" d="M.032-.15h0a0,0,0,0,0,0,0l0,0v.014H.016v-.02H.024v0a0,0,0,0,1,0,0l0,0h0Z" transform="translate(-0.016 0.156)" fill="#fff"/>
  </g>
  <g id="Group_401" data-name="Group 401" transform="translate(0.036 57.935)">
    <path id="Path_25211" data-name="Path 25211" d="M.026-.152l0,0v.01H.028a.008.008,0,0,0,0-.006.01.01,0,0,0,0,0A0,0,0,0,0,.026-.152Zm0,0a.009.009,0,0,1,.008,0,.011.011,0,0,1,0,.006.021.021,0,0,1,0,.008.011.011,0,0,1-.008,0l-.008,0a.015.015,0,0,1,0-.008.008.008,0,0,1,0-.006A.011.011,0,0,1,.026-.156Z" transform="translate(-0.016 0.156)" fill="#fff"/>
  </g>
  <g id="Group_402" data-name="Group 402" transform="translate(0.06 57.935)">
    <path id="Path_25212" data-name="Path 25212" d="M.036-.152a0,0,0,0,1,0,0l0,0,0,0a.011.011,0,0,1,0,.006v.012H.042V-.148a0,0,0,0,0,0,0v0l0,0v.014H.03v-.01s0,0,0,0a0,0,0,0,0,0,0l0,0v.014H.016v-.02H.024v0a0,0,0,0,1,0,0l0,0a0,0,0,0,1,0,0Z" transform="translate(-0.016 0.156)" fill="#fff"/>
  </g>
  <g id="Group_403" data-name="Group 403" transform="translate(0.108 57.929)">
    <path id="Path_25213" data-name="Path 25213" d="M.01-.2V-.2H.016v0H.01v.012H.016v0H.01s-.005,0-.006,0V-.193H0v0H0V-.2Z" transform="translate(0 0.203)" fill="#fff"/>
  </g>
  <g id="Group_404" data-name="Group 404" transform="translate(0.127 57.927)">
    <path id="Path_25214" data-name="Path 25214" d="M.036-.2v.012H.03V-.2h0v0l0,0v.014H.016V-.219H.024v.012a0,0,0,0,1,0,0l0,0s0,0,0,0A.011.011,0,0,1,.036-.2Z" transform="translate(-0.016 0.219)" fill="#fff"/>
  </g>
  <g id="Group_405" data-name="Group 405" transform="translate(0.153 57.935)">
    <path id="Path_25215" data-name="Path 25215" d="M.036-.146v0H.022v0h.01l0,0v0l0,0H.026l-.008,0a.015.015,0,0,1,0-.008.008.008,0,0,1,0-.006.011.011,0,0,1,.008,0,.007.007,0,0,1,.006,0,.007.007,0,0,1,0,.006Zm-.006,0a0,0,0,0,0,0,0,0,0,0,0,0,0,0l0,0v0Z" transform="translate(-0.016 0.156)" fill="#fff"/>
  </g>
  <g id="Group_406" data-name="Group 406" transform="translate(0.191 57.929)">
    <path id="Path_25216" data-name="Path 25216" d="M.031-.2H.037l.01.018V-.2H.053v.026H.047L.037-.2v.018H.031Z" transform="translate(-0.031 0.203)" fill="#fff"/>
  </g>
  <g id="Group_407" data-name="Group 407" transform="translate(0.219 57.935)">
    <path id="Path_25217" data-name="Path 25217" d="M.026-.152l0,0v.01H.028a.008.008,0,0,0,0-.006.01.01,0,0,0,0,0A0,0,0,0,0,.026-.152Zm0,0a.009.009,0,0,1,.008,0,.011.011,0,0,1,0,.006.021.021,0,0,1,0,.008.011.011,0,0,1-.008,0l-.008,0a.015.015,0,0,1,0-.008.008.008,0,0,1,0-.006A.011.011,0,0,1,.026-.156Z" transform="translate(-0.016 0.156)" fill="#fff"/>
  </g>
  <g id="Group_408" data-name="Group 408" transform="translate(0.244 57.935)">
    <path id="Path_25218" data-name="Path 25218" d="M.016-.144V-.156H.022v.014h0v0h0a0,0,0,0,0,0,0,.006.006,0,0,0,0,0v-.01H.036v.02H.03v0l0,0h0s-.005,0-.006,0S.016-.141.016-.144Z" transform="translate(-0.016 0.156)" fill="#fff"/>
  </g>
  <g id="Group_409" data-name="Group 409" transform="translate(0.27 57.935)">
    <path id="Path_25219" data-name="Path 25219" d="M.036-.148v.012H.03V-.15h0v0l0,0v.014H.016v-.02H.024v0a0,0,0,0,1,0,0l0,0s0,0,0,0A.011.011,0,0,1,.036-.148Z" transform="translate(-0.016 0.156)" fill="#fff"/>
  </g>
  <g id="Group_410" data-name="Group 410" transform="translate(0.31 57.929)">
    <path id="Path_25220" data-name="Path 25220" d="M.031-.2h.01a.014.014,0,0,1,.008,0,.011.011,0,0,1,0,.006.021.021,0,0,1,0,.008.011.011,0,0,1-.008,0h0v.008H.031Zm.006,0v.008H.043a.006.006,0,0,0,0,0,0,0,0,0,0,0,0,0,0,0,0,0,0,0Z" transform="translate(-0.031 0.203)" fill="#fff"/>
  </g>
  <g id="Group_411" data-name="Group 411" transform="translate(0.334 57.935)">
    <path id="Path_25221" data-name="Path 25221" d="M.032-.15h0a0,0,0,0,0,0,0l0,0v.014H.016v-.02H.024v0a0,0,0,0,1,0,0l0,0h0Z" transform="translate(-0.016 0.156)" fill="#fff"/>
  </g>
  <g id="Group_412" data-name="Group 412" transform="translate(0.352 57.935)">
    <path id="Path_25222" data-name="Path 25222" d="M.026-.152l0,0v.01H.028a.008.008,0,0,0,0-.006.01.01,0,0,0,0,0A0,0,0,0,0,.026-.152Zm0,0a.009.009,0,0,1,.008,0,.011.011,0,0,1,0,.006.021.021,0,0,1,0,.008.011.011,0,0,1-.008,0l-.008,0a.015.015,0,0,1,0-.008.008.008,0,0,1,0-.006A.011.011,0,0,1,.026-.156Z" transform="translate(-0.016 0.156)" fill="#fff"/>
  </g>
  <g id="Group_413" data-name="Group 413" transform="translate(0.373 57.927)">
    <path id="Path_25223" data-name="Path 25223" d="M-.012-.211H0v.02a.011.011,0,0,1,0,.006l-.006,0h0v0h0a0,0,0,0,0,0,0V-.211Zm0-.008H0v.006H-.012Z" transform="translate(0.016 0.219)" fill="#fff"/>
  </g>
  <g id="Group_414" data-name="Group 414" transform="translate(0.389 57.935)">
    <path id="Path_25224" data-name="Path 25224" d="M.036-.146v0H.022v0h.01l0,0v0l0,0H.026l-.008,0a.015.015,0,0,1,0-.008.008.008,0,0,1,0-.006.011.011,0,0,1,.008,0,.007.007,0,0,1,.006,0,.007.007,0,0,1,0,.006Zm-.006,0a0,0,0,0,0,0,0,0,0,0,0,0,0,0l0,0v0Z" transform="translate(-0.016 0.156)" fill="#fff"/>
  </g>
  <g id="Group_415" data-name="Group 415" transform="translate(0.413 57.935)">
    <path id="Path_25225" data-name="Path 25225" d="M.034-.156V-.15h0a0,0,0,0,0,0,0l0,0a.006.006,0,0,0,0,0,0,0,0,0,0,0,0,0,0,0,0,0,0,0h0l0,0v.006H.026l-.008,0a.015.015,0,0,1,0-.008.008.008,0,0,1,0-.006.011.011,0,0,1,.008,0H.034Z" transform="translate(-0.016 0.156)" fill="#fff"/>
  </g>
  <g id="Group_416" data-name="Group 416" transform="translate(0.432 57.929)">
    <path id="Path_25226" data-name="Path 25226" d="M.01-.2V-.2H.016v0H.01v.012H.016v0H.01s-.005,0-.006,0V-.193H0v0H0V-.2Z" transform="translate(0 0.203)" fill="#fff"/>
  </g>
</svg>
