<svg id="Pooling" xmlns="http://www.w3.org/2000/svg" width="19.778" height="22" viewBox="0 0 19.778 22">
  <g id="Group_337" data-name="Group 337" transform="translate(-391.932 -352.879)" opacity="0.7">
    <path id="Path_25067" data-name="Path 25067" d="M122.534,385.5a2.492,2.492,0,0,0-1.971,1.042c-.42.465-.633.673-1.14.673s-.739-.225-1.14-.673a2.385,2.385,0,0,0-3.942,0c-.422.465-.633.673-1.138.673s-.739-.225-1.138-.673a2.385,2.385,0,0,0-3.942,0c-.422.465-.633.673-1.138.673s-.736-.225-1.138-.673a2.5,2.5,0,0,0-1.966-1.042.561.561,0,0,0,0,1.122c.505,0,.736.224,1.138.673a2.383,2.383,0,0,0,3.939,0c.422-.465.633-.673,1.138-.673s.739.224,1.138.673a2.385,2.385,0,0,0,3.942,0c.422-.465.633-.673,1.138-.673s.739.224,1.14.673a2.385,2.385,0,0,0,3.942,0c.42-.465.633-.673,1.14-.673a.561.561,0,1,0,0-1.122Z" transform="translate(288.613 -17.391)" fill="#fff"/>
    <path id="Path_25068" data-name="Path 25068" d="M122.535,483.616a2.492,2.492,0,0,0-1.971,1.042c-.42.465-.633.673-1.14.673s-.739-.224-1.14-.673a2.385,2.385,0,0,0-3.942,0c-.422.464-.631.673-1.133.673s-.739-.225-1.138-.673a2.385,2.385,0,0,0-3.942,0c-.422.465-.633.673-1.138.673s-.741-.224-1.14-.673a2.5,2.5,0,0,0-1.969-1.042.561.561,0,1,0,0,1.122c.505,0,.736.224,1.138.673a2.384,2.384,0,0,0,3.939,0c.422-.465.633-.673,1.138-.673s.739.224,1.138.673a2.388,2.388,0,0,0,3.944,0c.422-.465.633-.673,1.138-.673s.739.224,1.14.673a2.383,2.383,0,0,0,3.939,0c.42-.465.633-.673,1.14-.673h0a.561.561,0,1,0,0-1.122Z" transform="translate(288.611 -111.574)" fill="#fff"/>
    <path id="Path_25069" data-name="Path 25069" d="M251.3,6.674a.977.977,0,0,1,.882.55.561.561,0,0,0,1.008-.494,2.1,2.1,0,0,0-3.993.925V18.748a.561.561,0,1,0,1.122,0v-1.3h6.173v1.306a.561.561,0,1,0,1.122,0V7.654a.981.981,0,0,1,1.861-.431.561.561,0,0,0,1.008-.494,2.1,2.1,0,0,0-3.991.925v2.09h-6.173V7.654a.981.981,0,0,1,.981-.981Zm-.981,9.652V14.155h6.173v2.171Zm6.173-5.459v2.166h-6.173V10.867Z" transform="translate(148.583 347.33)" fill="#fff"/>
  </g>
</svg>
