<svg xmlns="http://www.w3.org/2000/svg" width="21.503" height="20.514" viewBox="0 0 21.503 20.514">
  <g id="Presale" transform="translate(0.125 0.125)">
    <g id="Group_338" data-name="Group 338" transform="translate(212.283 -134.07)" opacity="0.7">
      <path id="Path_25112" data-name="Path 25112" d="M446.43,194.379l.514-.55.514.55-.514.55Z" transform="translate(-644.202 -53.411)" fill="#fff" stroke="#fff" stroke-width="0.25"/>
      <path id="Path_25113" data-name="Path 25113" d="M421.68,169.615l.514-.55.514.55-.514.55Z" transform="translate(-620.442 -29.748)" fill="#fff" stroke="#fff" stroke-width="0.25"/>
      <path id="Path_25114" data-name="Path 25114" d="M396.93,144.875l.514-.55.514.55-.514.55Z" transform="translate(-596.683 -6.108)" fill="#fff" stroke="#fff" stroke-width="0.25"/>
      <path id="Path_25115" data-name="Path 25115" d="M495.93,243.865l.514-.55.514.55-.514.55Z" transform="translate(-691.72 -100.697)" fill="#fff" stroke="#fff" stroke-width="0.25"/>
      <path id="Path_25116" data-name="Path 25116" d="M471.18,219.115l.514-.55.514.55-.513.55Z" transform="translate(-667.961 -77.047)" fill="#fff" stroke="#fff" stroke-width="0.25"/>
      <path id="Path_25117" data-name="Path 25117" d="M302.315,252.415a.361.361,0,0,1-.323-.212l-.656-1.378-1.426.242a.357.357,0,0,1-.383-.208.41.41,0,0,1,.069-.454l1.021-1.094-.654-1.378h0a.41.41,0,0,1,.067-.452.345.345,0,0,1,.422-.072l1.287.7,1.021-1.094a.345.345,0,0,1,.424-.074.4.4,0,0,1,.194.41l-.231,1.531,1.287.7a.4.4,0,0,1,.193.408.377.377,0,0,1-.3.323l-1.426.242-.224,1.528a.377.377,0,0,1-.3.323A.306.306,0,0,1,302.315,252.415Zm-.775-2.409a.362.362,0,0,1,.324.213l.268.563.092-.623h0a.377.377,0,0,1,.3-.323l.581-.1-.526-.287a.4.4,0,0,1-.194-.407l.092-.624-.416.447a.345.345,0,0,1-.422.071l-.526-.287.268.563h0a.41.41,0,0,1-.067.452l-.417.447.583-.1a.335.335,0,0,1,.057-.006Z" transform="translate(-503.219 -104.122)" fill="#fff" stroke="#fff" stroke-width="0.25"/>
      <path id="Path_25118" data-name="Path 25118" d="M104.9,56.921,103.165,55l-.248.275a.982.982,0,0,1-1.495.006,1.259,1.259,0,0,1,.006-1.657l.248-.275L99.94,51.419h0a.981.981,0,0,0-1.489,0l-1.24,1.375-.744-.825a.981.981,0,0,0-1.489,0L84.266,63.846a1.259,1.259,0,0,0,0,1.651L86,67.422l.248-.275h0a1,1,0,0,1,1.489,0,1.259,1.259,0,0,1,0,1.651l-.248.275L89.229,71a.981.981,0,0,0,1.489,0l1.24-1.376.745.825h0a.982.982,0,0,0,1.489,0L104.9,58.571a1.258,1.258,0,0,0,0-1.651ZM90.221,70.449a.327.327,0,0,1-.5,0l-1.265-1.4h0a2.127,2.127,0,0,0,.2-1.7,1.86,1.86,0,0,0-1.1-1.214,1.609,1.609,0,0,0-1.536.22l-1.265-1.4a.419.419,0,0,1,0-.55L95.474,52.519a.327.327,0,0,1,.5,0l.744.825L87.739,63.3a1.259,1.259,0,0,0,0,1.65l1.737,1.926.248-.275h0a.984.984,0,0,1,1.017-.3,1.116,1.116,0,0,1,.744.825,1.256,1.256,0,0,1-.273,1.128l-.248.275.5.55Zm14.186-12.427L93.694,69.9a.327.327,0,0,1-.5,0l-1.265-1.4a2.114,2.114,0,0,0,.282-1.269,2.04,2.04,0,0,0-.505-1.18,1.692,1.692,0,0,0-1.064-.559A1.624,1.624,0,0,0,89.5,65.8l-1.266-1.4a.419.419,0,0,1,0-.55L98.947,51.969a.327.327,0,0,1,.5,0l1.265,1.4a2.127,2.127,0,0,0-.2,1.7,1.86,1.86,0,0,0,1.094,1.214,1.609,1.609,0,0,0,1.535-.219l1.266,1.4a.42.42,0,0,1,0,.55Z" transform="translate(-296.24 82.993)" fill="#fff" stroke="#fff" stroke-width="0.25"/>
    </g>
  </g>
</svg>
