<svg xmlns="http://www.w3.org/2000/svg" width="15.287" height="15.287" viewBox="0 0 15.287 15.287">
  <path id="help_FILL0_wght400_GRAD0_opsz48" d="M11.72,16.1a.718.718,0,1,0-.516-.21A.7.7,0,0,0,11.72,16.1Zm-.669-2.79h1.127A3.127,3.127,0,0,1,12.3,12.4a2.25,2.25,0,0,1,.774-.946,3.343,3.343,0,0,0,.841-.975,2.243,2.243,0,0,0,.248-1.051A2.11,2.11,0,0,0,13.507,7.8a2.469,2.469,0,0,0-1.748-.611,2.954,2.954,0,0,0-1.653.468,2.674,2.674,0,0,0-1.041,1.29l1.013.382a1.783,1.783,0,0,1,.631-.831,1.681,1.681,0,0,1,.994-.3,1.532,1.532,0,0,1,1.051.354,1.155,1.155,0,0,1,.4.908,1.4,1.4,0,0,1-.248.793,3.807,3.807,0,0,1-.726.774,3.887,3.887,0,0,0-.85.984A2.6,2.6,0,0,0,11.051,13.306Zm.592,5.981a7.7,7.7,0,0,1-3-.583,7.46,7.46,0,0,1-2.427-1.615A7.62,7.62,0,0,1,4,11.643,7.657,7.657,0,0,1,17.051,6.217a7.719,7.719,0,0,1,1.634,2.427,7.49,7.49,0,0,1,.6,3,7.538,7.538,0,0,1-.6,3.019,7.719,7.719,0,0,1-1.634,2.427A7.46,7.46,0,0,1,14.624,18.7,7.654,7.654,0,0,1,11.643,19.287Zm0-7.854Zm0,6.707a6.245,6.245,0,0,0,4.6-1.911,6.27,6.27,0,0,0,1.9-4.586,6.27,6.27,0,0,0-1.9-4.586,6.245,6.245,0,0,0-4.6-1.911A6.227,6.227,0,0,0,7.029,7.057a6.3,6.3,0,0,0-1.882,4.586A6.3,6.3,0,0,0,7.029,16.23,6.227,6.227,0,0,0,11.643,18.14Z" transform="translate(-4 -4)" fill="#949494"/>
</svg>
