<svg id="Referral" xmlns="http://www.w3.org/2000/svg" width="20.695" height="20.695" viewBox="0 0 20.695 20.695">
  <g id="noun-add-friend-4270054" transform="translate(-90 -20)" opacity="0.7">
    <path id="Path_25134" data-name="Path 25134" d="M175.572,31.144a5.579,5.579,0,1,0-3.938-1.634A5.572,5.572,0,0,0,175.572,31.144Zm0-9.552a3.985,3.985,0,1,1-2.813,1.167A3.98,3.98,0,0,1,175.572,21.592Z" transform="translate(-76.816 0)" fill="#fff"/>
    <path id="Path_25135" data-name="Path 25135" d="M102.978,340H94.537A4.537,4.537,0,0,0,90,344.537v2.627a.8.8,0,0,0,.8.8h15.919a.8.8,0,0,0,.8-.8v-2.627A4.537,4.537,0,0,0,102.978,340Zm2.941,6.368H91.592v-1.831a2.945,2.945,0,0,1,2.945-2.945h8.445a2.945,2.945,0,0,1,2.937,2.945Z" transform="translate(0 -307.264)" fill="#fff"/>
    <path id="Path_25136" data-name="Path 25136" d="M475.572,211.99h-1.99V210H471.99v1.99H470v1.592h1.99v1.99h1.592v-1.99h1.99Z" transform="translate(-364.876 -182.438)" fill="#fff"/>
  </g>
</svg>
