<svg id="Referral_Program" data-name="Referral Program" xmlns="http://www.w3.org/2000/svg" width="52.13" height="59.244" viewBox="0 0 52.13 59.244">
  <path id="Path_25156" data-name="Path 25156" d="M559.542,212.047h0a23.292,23.292,0,0,0,1.759-9.072,26.3,26.3,0,0,0-2.129-10.368,5.458,5.458,0,0,1-1.3.555,24.917,24.917,0,0,1,.556,18.329,3.136,3.136,0,0,1,1.111.556Z" transform="translate(-509.171 -172.519)" fill="#f8f8f8"/>
  <path id="Path_25157" data-name="Path 25157" d="M198.081,459.105a24.178,24.178,0,0,1-11.478-6.017,8.458,8.458,0,0,1-1.2.741,25.107,25.107,0,0,0,12.774,6.665,7.012,7.012,0,0,1-.092-1.388Z" transform="translate(-177.331 -404.582)" fill="#f8f8f8"/>
  <path id="Path_25158" data-name="Path 25158" d="M196.5,59.369A24.574,24.574,0,0,1,207.515,54a3.718,3.718,0,0,1-.278-1.389,25.614,25.614,0,0,0-11.664,5.739,10.1,10.1,0,0,1,.926,1.018Z" transform="translate(-186.395 -47.798)" fill="#f8f8f8"/>
  <path id="Path_25159" data-name="Path 25159" d="M414.175,60.233a24.692,24.692,0,0,0-11.294-5.924v.278q-.139.556-.278,1.111a24.887,24.887,0,0,1,10.738,5.554,2.891,2.891,0,0,1,.833-1.019Z" transform="translate(-370.838 -49.31)" fill="#f8f8f8"/>
  <path id="Path_25160" data-name="Path 25160" d="M114.422,207.894a24.723,24.723,0,0,1,.555-18.884l-1.111-.555-.092-.092a25.894,25.894,0,0,0-.463,20.366,3.49,3.49,0,0,1,1.111-.834Z" transform="translate(-111.445 -168.738)" fill="#f8f8f8"/>
  <path id="Path_25161" data-name="Path 25161" d="M416.258,450.55a24.144,24.144,0,0,1-11.108,6.2v1.389a26.5,26.5,0,0,0,12.312-6.757,5.588,5.588,0,0,1-1.2-.833Z" transform="translate(-373.107 -402.321)" fill="#f8f8f8"/>
  <path id="Path_25162" data-name="Path 25162" d="M329.2,220.591a2.962,2.962,0,1,0,0-5.925,2.962,2.962,0,1,0,0,5.925Z" transform="translate(-302.804 -192.172)" fill="#f8f8f8"/>
  <path id="Path_25163" data-name="Path 25163" d="M296.7,303.76a7.643,7.643,0,0,0-6.943,4.536h13.885a7.643,7.643,0,0,0-6.943-4.536Z" transform="translate(-270.3 -271.545)" fill="#f8f8f8"/>
  <path id="Path_25164" data-name="Path 25164" d="M245.005,165.557a14.869,14.869,0,0,0-25.734-14.9,14.876,14.876,0,0,0,12.868,22.31,14.573,14.573,0,0,0,12.867-7.406Zm-12.867-16.015a4.351,4.351,0,1,1-4.351,4.351A4.345,4.345,0,0,1,232.138,149.542ZM240.1,166.76H224.177a.684.684,0,0,1-.648-.926,8.959,8.959,0,0,1,17.218,0,.726.726,0,0,1-.649.926Z" transform="translate(-205.742 -128.529)" fill="#f8f8f8"/>
  <path id="Path_25165" data-name="Path 25165" d="M317.711,17v4.906H319.1V17a4.291,4.291,0,0,0-.648-8.517h-.092A4.283,4.283,0,0,0,317.711,17Z" transform="translate(-291.963 -8.485)" fill="#f8f8f8"/>
  <path id="Path_25166" data-name="Path 25166" d="M125.567,115.241a4.255,4.255,0,0,0,5.554-.555l3.98,2.777a8.7,8.7,0,0,1,.833-1.111l-3.98-2.777a4.309,4.309,0,0,0-1.388-5.369,4.393,4.393,0,0,0-6.017,1.018,4.307,4.307,0,0,0,1.018,6.017Z" transform="translate(-122.405 -96.634)" fill="#f8f8f8"/>
  <path id="Path_25167" data-name="Path 25167" d="M476.166,113.37l-3.98,2.777a11.575,11.575,0,0,1,.833,1.111l3.98-2.777a4.355,4.355,0,0,0,5.554.555,4.315,4.315,0,0,0-5-7.035,4.23,4.23,0,0,0-1.388,5.369Z" transform="translate(-432.83 -96.43)" fill="#f8f8f8"/>
  <path id="Path_25168" data-name="Path 25168" d="M131.306,364.491l3.98-2.777-.833-1.111-3.98,2.777a4.354,4.354,0,0,0-5.554-.555,4.278,4.278,0,1,0,5,6.943,4.086,4.086,0,0,0,1.389-5.276Z" transform="translate(-121.85 -322.187)" fill="#f8f8f8"/>
  <path id="Path_25169" data-name="Path 25169" d="M319.362,433.387v-4.906h-1.389v4.906a4.365,4.365,0,0,0-3.61,4.258,4.259,4.259,0,1,0,5-4.258Z" transform="translate(-292.225 -382.66)" fill="#f8f8f8"/>
  <path id="Path_25170" data-name="Path 25170" d="M481.7,362.828a4.264,4.264,0,0,0-5.554.555l-3.98-2.777-.833,1.111,3.98,2.777a4.309,4.309,0,0,0,1.388,5.369,4.315,4.315,0,0,0,5-7.035Z" transform="translate(-432.066 -322.191)" fill="#f8f8f8"/>
</svg>
