<svg id="Voting" xmlns="http://www.w3.org/2000/svg" width="20.477" height="21.843" viewBox="0 0 20.477 21.843">
  <path id="Path_25120" data-name="Path 25120" d="M155.272,58.758a.647.647,0,0,0-.053-.266l-.013-.027L153,54.065A1.908,1.908,0,0,0,151.279,53h-1.127V51.038a.639.639,0,0,0-.639-.639h-8.959a.639.639,0,0,0-.639.639V53h-1.13a1.907,1.907,0,0,0-1.718,1.065l-2.206,4.409a.628.628,0,0,0-.067.282v1.284a1.923,1.923,0,0,0,1.279,1.811v8.471a1.924,1.924,0,0,0,1.921,1.918h14.078a1.923,1.923,0,0,0,1.921-1.921V61.854a1.923,1.923,0,0,0,1.279-1.809Zm-14.078-7.081h7.677v3.884h-7.677Zm-2.981,2.959a.637.637,0,0,1,.573-.354h1.129v1.281h-.639a.639.639,0,1,0,0,1.279h11.516a.639.639,0,1,0,0-1.279h-.639V54.28h1.129a.636.636,0,0,1,.573.354l1.742,3.49H136.468Zm14.5,15.685a.639.639,0,0,1-.639.639H137.994a.639.639,0,0,1-.639-.639V61.96h15.357Zm1.281-10.282h0a.639.639,0,0,1-.639.639H136.713a.642.642,0,0,1-.639-.639V59.4h17.917Z" transform="translate(-134.795 -50.399)" fill="#fff" fill-rule="evenodd" opacity="0.7"/>
  <path id="Path_25121" data-name="Path 25121" d="M227.647,320.38H216.128a.639.639,0,0,0-.639.639v5.165a.639.639,0,0,0,.639.639h11.518a.639.639,0,0,0,.634-.639v-5.165a.639.639,0,0,0-.639-.639Zm-.639,5.163h-10.24v-3.886h10.24Z" transform="translate(-211.651 -307.537)" fill="#fff" fill-rule="evenodd" opacity="0.7"/>
</svg>
