<svg xmlns="http://www.w3.org/2000/svg" width="54" height="54" viewBox="0 0 54 54">
  <circle id="Ellipse_2" data-name="Ellipse 2" cx="27" cy="27" r="27" fill="#00a4bb"/>
  <path id="asta_symbol" d="M28.64,2.7V2.648A2.7,2.7,0,0,0,25.957,0H16.533l9.261,22.83H23.858L16.454,4.9H12.225L6.719,18.338H4.782l6.3-15.29h4.668L14.509,0H2.85C2.8,0,2.749,0,2.7,0s-.105,0-.158.009A2.7,2.7,0,0,0,0,2.613v.18L.031,20.331a4.607,4.607,0,0,0,1.778,3.886l.479.277,1.388-3.517H8.607l1.5-3.526h2.731l-1.322-3.438,2.819-6.96L20.9,22.826h-1.98L14.381,11.9,13.5,14.012,15.571,19.3H11.255L9.8,22.865H4.953L3.864,25.4l.457.263,8.115,4.62a3.6,3.6,0,0,0,3.588,0l11.119-6.394c1.528-.861,1.475-3.548,1.475-3.548l.018-17.6V2.692" transform="translate(12.68 13.62)" fill="#fff"/>
</svg>
