<svg xmlns="http://www.w3.org/2000/svg" xmlns:xlink="http://www.w3.org/1999/xlink" width="54" height="54" viewBox="0 0 54 54">
  <defs>
    <linearGradient id="linear-gradient" x1="-0.053" y1="0.5" x2="1.469" y2="0.5" gradientUnits="objectBoundingBox">
      <stop offset="0" stop-color="#3d5eff"/>
      <stop offset="0.7" stop-color="#a4b1ff"/>
      <stop offset="1" stop-color="#bac7ff"/>
    </linearGradient>
    <linearGradient id="linear-gradient-2" x1="0.5" y1="0.374" x2="0.5" y2="0.789" xlink:href="#linear-gradient"/>
    <linearGradient id="linear-gradient-3" x1="0.895" y1="0.5" x2="0.031" y2="0.5" gradientUnits="objectBoundingBox">
      <stop offset="0" stop-color="#3d5eff"/>
      <stop offset="1" stop-color="#a4b1ff"/>
    </linearGradient>
    <linearGradient id="linear-gradient-4" x1="0.5" y1="1.006" x2="0.5" y2="0.032" xlink:href="#linear-gradient"/>
  </defs>
  <g id="Group_11" data-name="Group 11" transform="translate(204 -580)">
    <circle id="Ellipse_1" data-name="Ellipse 1" cx="27" cy="27" r="27" transform="translate(-204 580)" fill="#f3f6ff"/>
    <g id="Group_10" data-name="Group 10" transform="translate(-193.875 590.125)">
      <rect id="Rectangle_21" data-name="Rectangle 21" width="33.75" height="33.75" fill="none"/>
      <g id="레이어_1" data-name="레이어 1" transform="translate(2.261)">
        <g id="Group_9" data-name="Group 9">
          <path id="Path_19" data-name="Path 19" d="M104.708,152.43,99.225,155.6l-.015-.009v6.356l5.5-3.175,3.618-2.089v-6.34Z" transform="translate(-84.595 -128.194)" fill="url(#linear-gradient)"/>
          <path id="Path_20" data-name="Path 20" d="M108.325,5.263h0l-3.618-2.089L99.21,0V27.394l.015.009,5.483-3.166V9.513l3.618,2.09h0V28.487l5.5-3.175V8.438Z" transform="translate(-84.595)" fill="url(#linear-gradient-2)"/>
          <path id="Path_21" data-name="Path 21" d="M5.5,29.979h0l3.619-2.09V21.55L5.5,23.639h0L0,26.813V43.688l5.5,3.175h0l3.619,2.089V42.612L5.5,40.522h0Z" transform="translate(0 -18.375)" fill="url(#linear-gradient-3)"/>
          <path id="Path_22" data-name="Path 22" d="M61.89,3.175v27.4l5.5,3.175V0Z" transform="translate(-52.773)" fill="url(#linear-gradient-4)"/>
        </g>
      </g>
    </g>
  </g>
</svg>
