<svg xmlns="http://www.w3.org/2000/svg" width="54" height="54" viewBox="0 0 54 54">
  <g id="Group_94" data-name="Group 94" transform="translate(-767 -1425)">
    <rect id="Rectangle_70" data-name="Rectangle 70" width="54" height="54" rx="27" transform="translate(767 1425)" fill="#fff6ec"/>
    <g id="Group_93" data-name="Group 93" transform="translate(777.798 1434)">
      <path id="Path_137" data-name="Path 137" d="M834.711,154.494,818.6,163.747V146.4l16.111-9.4Z" transform="translate(-802.308 -127.747)" fill="#d5741f"/>
      <path id="Path_138" data-name="Path 138" d="M824.5,44.549l1.292-.7L809.74,34.6l-.94.6Z" transform="translate(-793.393 -34.6)" fill="#e6aa69"/>
      <path id="Path_139" data-name="Path 139" d="M639.4,43.961l1.03.506,15.208-8.756V34.6Z" transform="translate(-639.301 -34.6)" fill="#e6aa69"/>
      <path id="Path_140" data-name="Path 140" d="M682.4,89.493l2.747,1.545,12.226-7.1L694.7,82.4Z" transform="translate(-678.415 -78.081)" fill="#e6aa69"/>
      <path id="Path_141" data-name="Path 141" d="M743.2,124.693l2.747,1.554,12.235-7.1L755.5,117.6Z" transform="translate(-733.721 -110.1)" fill="#e6aa69"/>
      <path id="Path_142" data-name="Path 142" d="M638.3,154.9l1.148.75-.018-16.943-1.03-.506Z" transform="translate(-638.3 -128.839)" fill="#9b5624"/>
      <path id="Path_143" data-name="Path 143" d="M803.063,248.886l1.346.913V232.4l-1.41-.8Z" transform="translate(-788.117 -213.799)" fill="#9b5624"/>
      <path id="Path_144" data-name="Path 144" d="M743.2,213.214l2.765,1.88-.018-17.44L743.2,196.1Z" transform="translate(-733.721 -181.507)" fill="#9b5624"/>
      <path id="Path_145" data-name="Path 145" d="M682.4,178.023l2.765,1.88-.018-17.458L682.4,160.9Z" transform="translate(-678.415 -149.487)" fill="#9b5624"/>
      <path id="Path_146" data-name="Path 146" d="M820.521,128.813,819.1,128,803,137.361l1.41.849Z" transform="translate(-788.117 -119.56)" fill="#e6aa69"/>
    </g>
  </g>
</svg>
