<svg xmlns="http://www.w3.org/2000/svg" xmlns:xlink="http://www.w3.org/1999/xlink" width="36" height="36" viewBox="0 0 36 36">
  <defs>
    <linearGradient id="linear-gradient" x1="-0.053" y1="0.5" x2="1.469" y2="0.5" gradientUnits="objectBoundingBox">
      <stop offset="0" stop-color="#3d5eff"/>
      <stop offset="0.7" stop-color="#a4b1ff"/>
      <stop offset="1" stop-color="#bac7ff"/>
    </linearGradient>
    <linearGradient id="linear-gradient-2" x1="0.5" y1="0.374" x2="0.5" y2="0.789" xlink:href="#linear-gradient"/>
    <linearGradient id="linear-gradient-3" x1="0.895" y1="0.5" x2="0.031" y2="0.5" gradientUnits="objectBoundingBox">
      <stop offset="0" stop-color="#3d5eff"/>
      <stop offset="1" stop-color="#a4b1ff"/>
    </linearGradient>
    <linearGradient id="linear-gradient-4" x1="0.5" y1="1.006" x2="0.5" y2="0.032" xlink:href="#linear-gradient"/>
  </defs>
  <g id="Group_11" data-name="Group 11" transform="translate(206 -578)">
    <g id="Ellipse_1" data-name="Ellipse 1" transform="translate(-204 580)" fill="#f3f6ff" stroke="#fff" stroke-width="2">
      <circle cx="16" cy="16" r="16" stroke="none"/>
      <circle cx="16" cy="16" r="17" fill="none"/>
    </g>
    <g id="Group_10" data-name="Group 10" transform="translate(-29 1)">
      <rect id="Rectangle_21" data-name="Rectangle 21" width="20" height="20" transform="translate(-169 585)" fill="none"/>
      <g id="레이어_1" data-name="레이어 1" transform="translate(-167.66 585)">
        <g id="Group_9" data-name="Group 9">
          <path id="Path_19" data-name="Path 19" d="M102.468,151.579l-3.249,1.876-.009-.005v3.767l3.258-1.881,2.144-1.238V150.34Z" transform="translate(-90.55 -137.216)" fill="url(#linear-gradient)"/>
          <path id="Path_20" data-name="Path 20" d="M104.612,3.119h0l-2.144-1.238L99.21,0V16.233l.009.005,3.249-1.876V5.637l2.144,1.239h0v10L107.87,15V5Z" transform="translate(-90.55)" fill="url(#linear-gradient-2)"/>
          <path id="Path_21" data-name="Path 21" d="M3.258,26.545h0L5.4,25.306V21.55L3.258,22.788h0L0,24.669v10L3.258,36.55h0L5.4,37.788V34.031L3.258,32.793h0Z" transform="translate(0 -19.669)" fill="url(#linear-gradient-3)"/>
          <path id="Path_22" data-name="Path 22" d="M61.89,1.881V18.119L65.148,20V0Z" transform="translate(-56.487)" fill="url(#linear-gradient-4)"/>
        </g>
      </g>
    </g>
    <g id="usdt" transform="translate(-204.3 580)">
      <path id="Path_78" data-name="Path 78" d="M16,32A16,16,0,1,0,0,16,16,16,0,0,0,16,32Z" fill="#24a980"/>
      <path id="Path_79" data-name="Path 79" d="M16.344,15.669l-1.945.052c-1.024,0-1.715-.026-1.971-.052-3.865-.156-6.783-.856-6.783-1.659,0-.83,2.892-1.5,6.783-1.685v2.67c.256.026.973.052,2,.052,1.2,0,1.817-.052,1.92-.052v-2.67c3.89.182,6.783.855,6.783,1.685C23.127,14.814,20.235,15.513,16.344,15.669Zm0-3.629V9.655H21.77V6H7.028V9.655h5.426V12.04c-4.4.207-7.7,1.089-7.7,2.152s3.3,1.944,7.7,2.152v7.673H16.37V16.343c4.4-.207,7.7-1.089,7.7-2.152-.026-1.063-3.327-1.944-7.729-2.152Z" transform="translate(1.632 1.922)" fill="#fffdfa"/>
    </g>
  </g>
</svg>
